<svg width="288" height="79" viewBox="0 0 288 79" fill="none" xmlns="http://www.w3.org/2000/svg">
<g clip-path="url(#clip0_0_20)">
<path d="M68.8202 13.2591L87.2394 31.6801L93.869 25.0505L68.8202 0L52.5591 16.2611L98.9268 62.6289L95.8396 65.7161L49.5571 19.4335L19.9039 49.0867L26.5335 55.7163L49.5571 32.6927L95.8396 78.9752L112.186 62.6289L65.8182 16.2611L68.8202 13.2591Z" fill="#181719"/>
<path d="M16.4952 52.4958L9.93175 59.0592L16.5615 65.6889L23.1249 59.1255L16.4952 52.4958Z" fill="#181719"/>
<path d="M6.56317 62.587L-0.000244281 69.1505L6.62947 75.7802L13.1929 69.2168L6.56317 62.587Z" fill="#181719"/>
<path d="M130.558 8.08034H106.206V14.2104H114.632V36.1004H122.13V14.2104H130.558V8.08034Z" fill="#181719"/>
<path d="M138.244 30.7375H147.484L149.103 36.1004H157.311L148.063 8.08205H137.666L128.418 36.1004H136.626L138.246 30.7375H138.244ZM142.755 15.7975H142.975L145.767 25.0455H139.964L142.756 15.7975H142.755Z" fill="#181719"/>
<path d="M166.962 8.08034H159.355V36.0987H166.962V8.08034Z" fill="#181719"/>
<path d="M189.789 29.9704H178.461V8.08034H170.855V36.1004H189.789V29.9704Z" fill="#181719"/>
<path d="M207.506 26.8507H210.138L215.058 36.0987H223.32L217.628 25.6489C219.079 24.9517 220.225 23.963 221.055 22.6777C221.945 21.3003 222.388 19.6092 222.388 17.6011C222.388 15.5929 221.955 13.907 221.089 12.4836C220.223 11.0601 219.009 9.97084 217.449 9.21396C215.89 8.45707 214.071 8.07863 211.991 8.07863H199.896V36.1004H207.502V26.8525L207.506 26.8507ZM207.506 14.1542H210.187C211.081 14.1542 211.844 14.2752 212.478 14.5173C213.113 14.7593 213.6 15.1327 213.943 15.639C214.285 16.1453 214.456 16.7999 214.456 17.6028C214.456 18.4057 214.285 19.0398 213.943 19.5325C213.6 20.0251 213.113 20.3831 212.478 20.6064C211.844 20.8298 211.081 20.9423 210.187 20.9423H207.506V14.1559V14.1542Z" fill="#181719"/>
<path d="M233.187 8.08034H225.581V36.0987H233.187V8.08034Z" fill="#181719"/>
<path d="M250.079 29.8886C249.532 30.0897 248.852 30.1903 248.04 30.1903C247.074 30.1903 246.242 30.0403 245.543 29.7386C244.846 29.4368 244.305 28.9953 243.922 28.4123C243.538 27.8293 243.325 27.1082 243.279 26.2507H236.055C236.063 28.5947 236.568 30.5176 237.567 32.0177C238.566 33.5179 239.97 34.6293 241.781 35.3487C243.591 36.0698 245.713 36.4295 248.149 36.4295C250.585 36.4295 252.553 36.0971 254.244 35.4305C255.935 34.764 257.237 33.794 258.149 32.5172C259.061 31.2404 259.521 29.6806 259.532 27.8378C259.523 26.7707 259.351 25.7854 259.018 24.8836C258.686 23.9801 258.168 23.167 257.466 22.4408C256.763 21.7163 255.86 21.0838 254.757 20.5451C253.654 20.0064 252.326 19.5735 250.776 19.2462L248.478 18.7535C247.812 18.6171 247.237 18.462 246.755 18.2881C246.271 18.1142 245.875 17.9216 245.565 17.7068C245.255 17.492 245.03 17.2517 244.888 16.9823C244.747 16.713 244.685 16.4095 244.704 16.072C244.713 15.6612 244.837 15.2964 245.074 14.9776C245.311 14.6588 245.678 14.4048 246.175 14.219C246.673 14.0315 247.312 13.9377 248.098 13.9377C249.329 13.9377 250.248 14.1934 250.855 14.7048C251.462 15.2162 251.801 15.9271 251.874 16.8391H259.153C259.145 15.0066 258.689 13.4025 257.793 12.0302C256.894 10.6579 255.619 9.59245 253.969 8.83557C252.317 8.07868 250.362 7.70024 248.1 7.70024C245.838 7.70024 243.92 8.07357 242.21 8.82193C240.5 9.57029 239.164 10.6119 238.202 11.9483C237.239 13.2848 236.764 14.8412 236.772 16.6209C236.764 18.8097 237.473 20.5366 238.9 21.7998C240.327 23.063 242.282 23.963 244.762 24.5017L247.553 25.1035C248.593 25.3319 249.418 25.5757 250.03 25.8348C250.64 26.0939 251.081 26.3871 251.351 26.711C251.62 27.0349 251.758 27.4116 251.768 27.8395C251.76 28.2964 251.613 28.7021 251.33 29.0567C251.047 29.413 250.633 29.6908 250.086 29.892L250.079 29.8886Z" fill="#181719"/>
<path d="M270.106 28.8759L272.622 25.5927L278.916 36.1004H288L278.314 20.557L287.782 8.08034H278.916L270.488 19.408H270.106V8.08034H262.499V36.1004H270.106V28.8759Z" fill="#181719"/>
<path d="M147.151 60.3006H152.236C152.216 61.0814 152.028 61.7666 151.665 62.3531C151.281 62.9736 150.705 63.4526 149.935 63.7901C149.164 64.1277 148.199 64.2964 147.042 64.2964C145.729 64.2964 144.63 63.9862 143.745 63.3656C142.86 62.7451 142.194 61.8519 141.747 60.6842C141.3 59.5164 141.077 58.1118 141.077 56.4702C141.077 54.8285 141.312 53.4597 141.781 52.3107C142.25 51.1617 142.935 50.2821 143.834 49.6701C144.732 49.0598 145.82 48.753 147.096 48.753C147.69 48.753 148.233 48.8195 148.731 48.9507C149.229 49.0837 149.665 49.2797 150.044 49.5389C150.422 49.798 150.739 50.1133 150.995 50.4833C151.251 50.8532 151.437 51.2794 151.556 51.7618H159.244C159.098 50.3571 158.688 49.0667 158.013 47.8904C157.338 46.7142 156.452 45.6948 155.352 44.8322C154.253 43.9696 152.99 43.3048 151.563 42.8343C150.134 42.3655 148.591 42.1302 146.931 42.1302C145.042 42.1302 143.273 42.4473 141.623 43.0815C139.973 43.7156 138.517 44.6498 137.259 45.8857C136.001 47.1216 135.017 48.6337 134.311 50.4219C133.604 52.2101 133.251 54.2626 133.251 56.5793C133.251 59.5335 133.827 62.0837 134.981 64.2265C136.135 66.3693 137.743 68.0212 139.804 69.1787C141.865 70.3362 144.26 70.9158 146.986 70.9158C149.43 70.9158 151.599 70.435 153.491 69.4719C155.383 68.5104 156.869 67.1228 157.95 65.3124C159.031 63.502 159.571 61.32 159.571 58.7664V54.8814H147.149V60.2989L147.151 60.3006Z" fill="#181719"/>
<path d="M170.521 42.5152H162.914V70.5353H181.85V64.4052H170.521V42.5152Z" fill="#181719"/>
<path d="M203.665 43.7816C201.604 42.6821 199.304 42.1332 196.77 42.1332C194.235 42.1332 191.911 42.6821 189.854 43.7816C187.796 44.8811 186.165 46.5006 184.956 48.6383C183.747 50.7777 183.144 53.4063 183.144 56.5259C183.144 59.6455 183.747 62.2469 184.956 64.3863C186.165 66.5257 187.798 68.1485 189.854 69.2566C191.909 70.3647 194.216 70.9187 196.77 70.9187C199.323 70.9187 201.604 70.3698 203.665 69.2702C205.726 68.1707 207.364 66.5529 208.576 64.4136C209.79 62.2742 210.395 59.6455 210.395 56.5259C210.395 53.4063 209.788 50.7777 208.576 48.6383C207.363 46.4989 205.726 44.8811 203.665 43.7816ZM201.908 60.774C201.464 61.9281 200.813 62.8043 199.95 63.401C199.088 63.9976 198.028 64.2976 196.77 64.2976C195.511 64.2976 194.451 63.9993 193.589 63.401C192.726 62.8043 192.075 61.9281 191.632 60.774C191.188 59.62 190.968 58.2051 190.968 56.5259C190.968 54.8468 191.19 53.4319 191.632 52.2778C192.073 51.1237 192.726 50.2492 193.589 49.6509C194.451 49.0542 195.511 48.7542 196.77 48.7542C198.028 48.7542 199.088 49.0525 199.95 49.6509C200.813 50.2475 201.464 51.1237 201.908 52.2778C202.349 53.4319 202.571 54.8485 202.571 56.5259C202.571 58.2033 202.349 59.62 201.908 60.774Z" fill="#181719"/>
<path d="M233.296 56.833C232.311 56.2721 231.217 55.9687 230.013 55.9227V55.6482C231.099 55.43 232.047 55.0345 232.858 54.4652C233.67 53.8958 234.302 53.1866 234.754 52.3377C235.206 51.4887 235.431 50.5495 235.431 49.5198C235.431 48.0964 235.059 46.8605 234.316 45.8121C233.572 44.7637 232.473 43.9523 231.019 43.3761C229.565 42.8016 227.77 42.5135 225.635 42.5135H213.486V70.5319H226.675C228.709 70.5319 230.46 70.1893 231.929 69.5057C233.397 68.8221 234.53 67.8828 235.328 66.6878C236.126 65.4928 236.525 64.1291 236.525 62.5966C236.525 61.2737 236.233 60.123 235.649 59.1428C235.066 58.1626 234.28 57.3921 233.296 56.8313V56.833ZM221.092 48.48H224.321C225.269 48.48 226.055 48.7101 226.674 49.1704C227.294 49.6306 227.604 50.2938 227.604 51.1614C227.604 51.7359 227.461 52.2218 227.173 52.619C226.885 53.0162 226.486 53.3196 225.976 53.5293C225.465 53.739 224.877 53.8446 224.212 53.8446H221.092V48.4817V48.48ZM227.522 63.7421C226.883 64.2211 225.927 64.4598 224.65 64.4598H221.092V58.5496H224.759C225.535 58.5496 226.198 58.6689 226.75 58.9059C227.303 59.1428 227.729 59.4889 228.029 59.9457C228.33 60.4026 228.481 60.9583 228.481 61.6146C228.481 62.5539 228.162 63.2631 227.522 63.7421Z" fill="#181719"/>
<path d="M246.334 42.5152L237.086 70.5336H245.294L246.913 65.1706H256.153L257.772 70.5336H265.98L256.732 42.5152H246.335H246.334ZM248.632 59.4804L251.424 50.2324H251.642L254.434 59.4804H248.632Z" fill="#181719"/>
<path d="M275.632 42.5152H268.026V70.5353H286.96V64.4052H275.632V42.5152Z" fill="#181719"/>
</g>
<defs>
<clipPath id="clip0_0_20">
<rect width="287.834" height="78.9297" fill="white" transform="scale(1.00058)"/>
</clipPath>
</defs>
</svg>
