<svg width="993" height="530" viewBox="0 0 993 530" fill="none" xmlns="http://www.w3.org/2000/svg">
<g clip-path="url(#clip0_1_30)">
<rect width="992.531" height="529.35" transform="scale(1.00047)" fill="black"/>
<path d="M496.103 332.414V529.233" stroke="#2E2E2E" stroke-width="1.65422" stroke-miterlimit="10"/>
<path d="M106.296 464.575V529.232" stroke="#2E2E2E" stroke-width="1.65422" stroke-miterlimit="10"/>
<path d="M141.755 432.066V529.233" stroke="#2E2E2E" stroke-width="1.65422" stroke-miterlimit="10"/>
<path d="M177.858 397.866V528.932" stroke="#2E2E2E" stroke-width="1.65422" stroke-miterlimit="10"/>
<path d="M212.634 365.655V529.233" stroke="#2E2E2E" stroke-width="1.65422" stroke-miterlimit="10"/>
<path d="M283.469 299.903V529.233" stroke="#2E2E2E" stroke-width="1.65422" stroke-miterlimit="10"/>
<path d="M354.347 233.419V529.233" stroke="#2E2E2E" stroke-width="1.65422" stroke-miterlimit="10"/>
<path d="M425.225 266.699V529.234" stroke="#2E2E2E" stroke-width="1.65422" stroke-miterlimit="10"/>
<path d="M70.8785 493.8V529.234" stroke="#2E2E2E" stroke-width="1.65422" stroke-miterlimit="10"/>
<path d="M673.276 493.8V529.234" stroke="#2E2E2E" stroke-width="1.65422" stroke-miterlimit="10"/>
<path d="M318.93 266.699V529.234" stroke="#2E2E2E" stroke-width="1.65422" stroke-miterlimit="10"/>
<path d="M389.766 233.419V529.233" stroke="#2E2E2E" stroke-width="1.65422" stroke-miterlimit="10"/>
<path d="M460.643 299.903V529.233" stroke="#2E2E2E" stroke-width="1.65422" stroke-miterlimit="10"/>
<path d="M531.521 365.655V529.233" stroke="#2E2E2E" stroke-width="1.65422" stroke-miterlimit="10"/>
<path d="M566.939 398.167V529.234" stroke="#2E2E2E" stroke-width="1.65422" stroke-miterlimit="10"/>
<path d="M602.399 432.066V529.233" stroke="#2E2E2E" stroke-width="1.65422" stroke-miterlimit="10"/>
<path d="M637.817 464.575V529.232" stroke="#2E2E2E" stroke-width="1.65422" stroke-miterlimit="10"/>
<path d="M248.051 332.414V529.233" stroke="#2E2E2E" stroke-width="1.65422" stroke-miterlimit="10"/>
<path d="M744.113 493.8V529.234" stroke="#2E2E2E" stroke-width="1.65422" stroke-miterlimit="10"/>
<path d="M0 493.8V529.234" stroke="#2E2E2E" stroke-width="1.65422" stroke-miterlimit="10"/>
<path d="M708.694 493.8V529.234" stroke="#2E2E2E" stroke-width="1.65422" stroke-miterlimit="10"/>
<path d="M35.4597 493.8V529.234" stroke="#2E2E2E" stroke-width="1.65422" stroke-miterlimit="10"/>
<path d="M744.947 176.69V528.759" stroke="#7F7D7D" stroke-width="1.65422" stroke-miterlimit="10"/>
<path d="M355.182 413.107V528.758" stroke="#7F7D7D" stroke-width="1.65422" stroke-miterlimit="10"/>
<path d="M390.6 354.953V528.759" stroke="#7F7D7D" stroke-width="1.65422" stroke-miterlimit="10"/>
<path d="M426.06 294.276V528.758" stroke="#7F7D7D" stroke-width="1.65422" stroke-miterlimit="10"/>
<path d="M461.478 236.122V528.757" stroke="#7F7D7D" stroke-width="1.65422" stroke-miterlimit="10"/>
<path d="M532.356 118.535V528.758" stroke="#7F7D7D" stroke-width="1.65422" stroke-miterlimit="10"/>
<path d="M603.233 -0.367117V528.759" stroke="#7F7D7D" stroke-width="1.65422" stroke-miterlimit="10"/>
<path d="M674.111 59.139V528.759" stroke="#7F7D7D" stroke-width="1.65422" stroke-miterlimit="10"/>
<path d="M319.764 465.381V528.759" stroke="#7F7D7D" stroke-width="1.65422" stroke-miterlimit="10"/>
<path d="M922.121 465.381V528.759" stroke="#7F7D7D" stroke-width="1.65422" stroke-miterlimit="10"/>
<path d="M567.774 59.139V528.759" stroke="#7F7D7D" stroke-width="1.65422" stroke-miterlimit="10"/>
<path d="M638.652 -0.367117V528.759" stroke="#7F7D7D" stroke-width="1.65422" stroke-miterlimit="10"/>
<path d="M709.53 118.535V528.758" stroke="#7F7D7D" stroke-width="1.65422" stroke-miterlimit="10"/>
<path d="M780.408 236.122V528.757" stroke="#7F7D7D" stroke-width="1.65422" stroke-miterlimit="10"/>
<path d="M815.826 294.276V528.758" stroke="#7F7D7D" stroke-width="1.65422" stroke-miterlimit="10"/>
<path d="M851.286 354.953V528.759" stroke="#7F7D7D" stroke-width="1.65422" stroke-miterlimit="10"/>
<path d="M886.703 413.107V528.758" stroke="#7F7D7D" stroke-width="1.65422" stroke-miterlimit="10"/>
<path d="M496.938 176.69V528.759" stroke="#7F7D7D" stroke-width="1.65422" stroke-miterlimit="10"/>
<path d="M993 465.381V528.759" stroke="#7F7D7D" stroke-width="1.65422" stroke-miterlimit="10"/>
<path d="M248.886 465.381V528.759" stroke="#7F7D7D" stroke-width="1.65422" stroke-miterlimit="10"/>
<path d="M957.581 465.381V528.759" stroke="#7F7D7D" stroke-width="1.65422" stroke-miterlimit="10"/>
<path d="M284.305 465.381V528.759" stroke="#7F7D7D" stroke-width="1.65422" stroke-miterlimit="10"/>
<ellipse cx="158.965" cy="121.308" rx="158.965" ry="121.308" transform="matrix(0.87138 -0.491571 0.508952 0.861344 610.695 316.427)" fill="url(#paint0_radial_1_30)" fill-opacity="0.12"/>
<ellipse cx="125.976" cy="175.041" rx="125.976" ry="175.041" transform="matrix(0.87138 -0.491571 0.508952 0.861344 99.3 -15.5615)" fill="url(#paint1_radial_1_30)" fill-opacity="0.12"/>
</g>
<defs>
<radialGradient id="paint0_radial_1_30" cx="0" cy="0" r="1" gradientUnits="userSpaceOnUse" gradientTransform="translate(158.965 121.308) rotate(90) scale(121.308 158.965)">
<stop stop-color="#2B36D9"/>
<stop offset="1" stop-color="#181719"/>
</radialGradient>
<radialGradient id="paint1_radial_1_30" cx="0" cy="0" r="1" gradientUnits="userSpaceOnUse" gradientTransform="translate(125.976 175.041) rotate(90) scale(175.041 125.976)">
<stop stop-color="#FD527B"/>
<stop offset="1" stop-color="#181719"/>
</radialGradient>
<clipPath id="clip0_1_30">
<rect width="992.531" height="529.35" fill="white" transform="scale(1.00047)"/>
</clipPath>
</defs>
</svg>
